<?xml version="1.0" encoding="UTF-8"?>
<svg id="Laag_1" xmlns="http://www.w3.org/2000/svg" version="1.1" viewBox="0 0 841.89 595.28">
  <!-- Generator: Adobe Illustrator 30.3.0, SVG Export Plug-In . SVG Version: 2.1.3 Build 182)  -->
  <defs>
    <style>
      .st0 {
        fill: #3c7db3;
      }

      .st1, .st2 {
        fill: #4c77b7;
      }

      .st3 {
        fill: none;
        stroke: #1d1d1b;
        stroke-miterlimit: 10;
        stroke-width: .5px;
      }

      .st2 {
        font-family: Futura-CondensedExtraBold, Futura;
        font-size: 68.63px;
        font-weight: 700;
      }
    </style>
  </defs>
  <rect class="st3" x="333.24" y="-510.68" width="1920" height="162.4"/>
  <g>
    <path class="st0" d="M397.67-447.16h21.2v7.29h-13.19v14.21h10.35v7.29h-10.35v22.22h-8.01v-51Z"/>
    <path class="st0" d="M422.15-408.98v-26.81c0-8.16,4.3-12.82,12.17-12.82s12.17,4.66,12.17,12.82v26.81c0,8.16-4.3,12.82-12.17,12.82s-12.17-4.66-12.17-12.82ZM438.47-408.47v-27.83c0-3.64-1.6-5.03-4.15-5.03s-4.15,1.38-4.15,5.03v27.83c0,3.64,1.6,5.03,4.15,5.03s4.15-1.38,4.15-5.03Z"/>
    <path class="st0" d="M451.88-447.16h11.88c8.31,0,11.88,3.86,11.88,11.73v3.13c0,5.25-1.68,8.6-5.25,10.05v.15c4.01,1.24,5.32,5.03,5.32,10.78v8.96c0,2.48.07,4.3.87,6.19h-8.16c-.44-1.31-.73-2.11-.73-6.27v-9.33c0-4.74-1.38-6.27-5.03-6.27h-2.77v21.86h-8.01v-51ZM462.81-425.3c2.99,0,4.81-1.31,4.81-5.39v-3.93c0-3.64-1.24-5.25-4.08-5.25h-3.64v14.57h2.91Z"/>
    <path class="st0" d="M481.24-447.88h11.44l5.1,36.5h.15l5.1-36.5h11.44v51h-7.58v-38.62h-.15l-5.83,38.62h-6.7l-5.83-38.62h-.15v38.62h-6.99v-51Z"/>
    <path class="st0" d="M526.64-447.16h10.86l8.31,51h-8.02l-1.46-10.13v.15h-9.11l-1.46,9.98h-7.43l8.31-51ZM535.38-413.06l-3.57-25.21h-.15l-3.5,25.21h7.21Z"/>
  </g>
  <g>
    <g>
      <path class="st1" d="M75.51,192.96v-39.39c0-15.91,5.14-28.39,15.44-37.45,10.3-9.06,24.63-13.59,43-13.59h21.45v53.08h-13.5c-3.82,0-6.94,1.39-9.34,4.16-2.4,2.77-3.61,6.44-3.61,11v22.19h26.45v44.76h-26.45v125.4h-53.45v-125.4h-18.87v-44.76h18.87Z"/>
      <path class="st1" d="M404.94,188.15c-14.2,0-27.71,11.11-40.54,33.29h-.73v-28.48h-51.39v31.23c7.51,14.76,11.24,33.29,11.24,55.51s-3.73,39.12-11.24,53.23v30.2h53.62v-84.51c0-25.52,9.87-38.31,29.6-38.31,5.53,0,11.58.56,18.1,1.67v-52.72c-3.69-.73-6.56-1.12-8.67-1.12Z"/>
      <path class="st1" d="M651.89,339.1c-9.61-16.52-14.41-38.95-14.41-67.3s4.85-48.99,14.58-65.12c1.33-2.19,2.7-4.25,4.16-6.13-6.09-11.54-16.26-17.33-30.5-17.33-9.99,0-18.7,2.4-26.17,7.16-7.46,4.8-15.53,12.44-24.15,22.86-5.53-20.03-17.8-30.03-36.8-30.03-15.79,0-31.31,9.14-46.58,27.41v-21.36h-53.66v173.86h53.66v-105.27c0-6.91,1.42-12.4,4.33-16.43,2.92-4.03,6.73-6.05,11.54-6.05s8.32,2.06,11.2,6.22c2.92,4.16,4.38,9.44,4.38,15.87v105.65h53.79v-102.99c0-16.51,5.45-24.75,16.3-24.75s15.91,8.36,15.91,25.14v102.61h53.79v-9.69c-4.2-3.73-7.98-8.54-11.37-14.33Z"/>
      <path class="st1" d="M731.42,187.98v21.28h-.73c-6.39-9.35-12.57-16.17-18.49-20.42-5.92-4.25-13.13-6.39-21.66-6.39-13.73,0-25.18,6.01-34.32,18.1,4.72,8.75,7.04,20.89,7.04,36.33v116.55c7.72,6.99,16.82,10.47,27.28,10.47,8.28,0,15.44-2.27,21.58-6.86,6.09-4.55,12.4-11.62,18.96-21.28h.73v22.39h53.45v-170.17h-53.83ZM711.81,316.15c-14.41,0-21.62-14.67-21.62-44.01s6.95-42.34,20.89-42.34,20.72,14.11,20.72,42.34-6.65,44.01-19.99,44.01Z"/>
      <path class="st1" d="M217.27,192.95c-9.35,4.07-17.24,10.29-23.68,18.62-5.71,7.38-10.12,16.04-13.25,26.04h-24.92v-44.65h61.86Z"/>
      <path class="st1" d="M257.54,237.61h-17.16c2.49-1.42,5.36-2.1,8.62-2.1s6.09.69,8.54,2.1Z"/>
    </g>
    <ellipse class="st1" cx="249.32" cy="276.98" rx="24.46" ry="44.16"/>
  </g>
  <text class="st2" transform="translate(71.1 460.41)"><tspan x="0" y="0">Be visible</tspan></text>
</svg>